<?xml version="1.0" standalone="no"?><!DOCTYPE svg PUBLIC "-//W3C//DTD SVG 1.1//EN" "http://www.w3.org/Graphics/SVG/1.1/DTD/svg11.dtd"><svg t="1566549290830" class="icon" viewBox="0 0 1024 1024" version="1.1" xmlns="http://www.w3.org/2000/svg" p-id="2145" xmlns:xlink="http://www.w3.org/1999/xlink" width="200" height="200"><defs><style type="text/css"></style></defs><path d="M128 199.111111A42.666667 42.666667 0 0 0 85.333333 241.777778v102.599111a179.2 179.2 0 0 1 0 323.868444V770.844444a42.666667 42.666667 0 0 0 42.666667 42.666667h768a42.666667 42.666667 0 0 0 42.666667-42.666667v-102.627555a179.2 179.2 0 0 1 0-323.84V241.777778A42.666667 42.666667 0 0 0 896 199.111111H366.933333v490.666667a42.666667 42.666667 0 1 1-85.333333 0V199.111111H128zM0 241.777778A128 128 0 0 1 128 113.777778h768A128 128 0 0 1 1024 241.777778v132.266666a42.666667 42.666667 0 0 1-32 41.386667 93.895111 93.895111 0 0 0 0 181.76A42.666667 42.666667 0 0 1 1024 638.577778v132.266666a128 128 0 0 1-128 128h-768A128 128 0 0 1 0 770.844444v-132.266666a42.666667 42.666667 0 0 1 32-41.386667 93.923556 93.923556 0 0 0 0-181.76A42.666667 42.666667 0 0 1 0 374.044444V241.777778z m452.266667 179.2a42.666667 42.666667 0 0 1 42.666666-42.666667h145.066667a42.666667 42.666667 0 0 1 0 85.333333h-145.066667a42.666667 42.666667 0 0 1-42.666666-42.666666z m0 217.6a42.666667 42.666667 0 0 1 42.666666-42.666667h230.4a42.666667 42.666667 0 1 1 0 85.333333h-230.4a42.666667 42.666667 0 0 1-42.666666-42.666666z" p-id="2146"></path></svg>