<?xml version="1.0" standalone="no"?><!DOCTYPE svg PUBLIC "-//W3C//DTD SVG 1.1//EN" "http://www.w3.org/Graphics/SVG/1.1/DTD/svg11.dtd"><svg t="1564464862915" class="icon" viewBox="0 0 1024 1024" version="1.1" xmlns="http://www.w3.org/2000/svg" p-id="3241" xmlns:xlink="http://www.w3.org/1999/xlink" width="128" height="128"><defs><style type="text/css"></style></defs><path d="M0 400C0 179.086112 179.086112 0 400 0 620.913888 0 800 179.086112 800 400 800 620.913888 620.913888 800 400 800 179.086112 800 0 620.913888 0 400ZM400 736C585.56768 736 736 585.56768 736 400 736 214.43232 585.56768 64 400 64 214.43232 64 64 214.43232 64 400 64 585.56768 214.43232 736 400 736ZM657.63168 634.957056C670.115424 622.473312 690.393408 622.511136 703.032256 635.150016L996.849984 928.967744C1009.440288 941.558048 1009.630496 961.780768 997.042944 974.36832L974.36832 997.042944C961.884576 1009.526688 941.606592 1009.488864 928.967744 996.849984L612.353248 680.235488 657.63168 634.957056Z" p-id="3242"></path></svg>